<svg xmlns:svg="http://www.w3.org/2000/svg" xmlns="http://www.w3.org/2000/svg" version="1.1" viewBox="0 0 500 450" height="450" width="500"><a transform="matrix(1.1137961,0,-0.0153718,1.0529049,-8.6595603,-76.327291)"/><g transform="matrix(1.5612598,-0.04088303,0.03941612,1.5052413,-275.75095,-265.09478)"><path d="m323.12 292.64c4.69-0.35 13.13-0.7 13.43 3.91 0.14-12.7 7.79 86.37 7.54 131.78-0.06 9.98-3.61 15.43-7.16 18.52-9.31 7.36-13 10.37-21.38 17.59-4.05 3.48-11.91 5.97-17.64 6.14-44.59 3.16-69.94 4.13-105.19 5.66-8.16 0.72-7.24-8.78-8.19-14.53C167.75 359.32 170.22 360.36 170 359.38c-1.66-7.52-0.87-18.14 4.84-23.44 7.42-6.9 26.95-26 38.26-32.76 6.82-4.17 11.16-6.25 24.16-6.61 30.69-0.86 63.5-2.25 85.86-3.94z" style="fill:#2ca05a;stroke-width:3.28"/><path d="m202.1 350.51c15.97-1.35 40.16-1.88 65.52-4.99 8.74-1.07 18.19 0.13 18.83 10.14 2.68 34.96 5.18 52.65 9.38 88.84 0.21 6.16-1.5 8.19-8.74 8.76-63.62 4.64-52.09 3.64-72.24 5.23-17.29 1.16-16.1-0.19-17.22-8.88-2.88-28.08-3.94-35.06-10.59-85.84-0.87-11.1 1.89-11.34 15.06-13.27z" fill="#37c871"/><path d="m213.81 442.18c-3.78-3.35-0.7-10.11 0.03-15.12 1.29-8.78 5.45-17.01 7.6-25.65 2.17-8.71 2.45-17.83 5.35-26.35 1.78-5.23 2.21-12.55 7.3-14.96 5.15-2.44 11.9 0.65 16.49 3.81 4.98 3.43 7.14 9.69 9.9 14.99 2.58 4.95 4.49 10.24 6.17 15.56 2.17 6.88 3.19 14.07 5.01 21.05 1.63 6.21 9.36 13.34 5.3 18.53-3.32 4.24-11.72 2.88-16.22 0.05-5.3-3.34-2.62-13.2-7.63-16.94-1.47-1.1-3.68-1.12-5.54-0.83-4.56 0.71-9.32 2.74-12.47 6.08-4.64 4.92-2.1 14.53-7.58 18.54-3.71 2.71-10.37 4.23-13.72 1.26z" fill="#fff"/><path d="m236.76 399.75c-0.05-0.51 1.57-14.57 3.58-18.26 2.01-3.69 10.16 12.95 10.18 17.75 0.02 4.8-8.93 3.27-11.49 2.49-2.56-0.78-2.22-1.46-2.27-1.97zm81.95 48.74 0 0M318.71 448.49c-5.56 2.77-6.73-5.11-7.36-13.26-2.12-27.61-6.78-59.4-7.97-85.25-0.14-3.08-0.41-9.17 2.99-10.73 6.47-2.96 21.22-18.53 21.97-0.37 3.72 50.81 2.52 34.47 7.32 85.16 1.25 8.18 1.67 9-16.96 24.45zM218.46 314.99c4.82-3.58 8.19-6.99 17.36-7.33 19.12-0.7 21.87-1.7 67.48-2.7 29.68-1.18 10.85 10.89-2.12 21.09-3.06 1.76-3.44 5.42-14.15 5.96-51.34 2.55-77.04 5.59-89.64 6.23-1.97 0.1-6.55 0.16 0.42-5.81 8.31-7.42 13.13-10.98 20.65-17.43z" fill="#37c871"/></g><rect width="3" height="2.25" x="-410.48" y="-98.31" style="fill:#fff;opacity:0.81;stroke-width:0.08;stroke:#000"/><g transform="matrix(1.6943066,-0.1192716,0.10682233,1.548967,-335.50425,-255.66001)"><path d="m455.1 328.56c13.99 3.56 14.27 13.33 14.51 14.41 0.67 2.97-2.54 50.3-6.52 93.99-0.99 10.83-2.6 14.44-5.63 16.51-6.4 4.38-28.79 20.94-36.62 26.32-3.67 2.52-9.17 7.37-19.34 5.69-29.96-4.95-65.34-9.32-94.18-17.48-2.42-1.88-7.39-3.48-6.05-18.29 2.32-25.6 7.27-65.86 11.55-104.29-0.26-8.93 7.06-15.31 10.78-17.88 9.31-6.45 25.23-12.83 36.73-18.19 5.5-2.56 16.07-3.24 20.34-0.82 29.77 8.91 47.79 10.65 74.42 20.04z" fill="#c837ab"/><path d="m387.31 322.84c3.68 1.3 36.27 9.78 49.89 12.78 13.62 3 13.21 3.63 12.77 5.94-0.43 2.32-3.84 4.21-16.43 12.33-12.6 8.12-9.63 7.07-32.63 2.24-23-4.83-30.95-9.96-52.65-15.05-19.5-5.11-20.43-4.18-8.6-9.4 7.62-3.36 20.43-9.99 23.1-10.69 9.2-2.43 12.13-2.1 24.55 1.85zm-46.9 31.48 0 0M340.41 354.32c26.81 6.15 9.69 3.59 65.61 16.57 2.18 0.7 8.19 3.67 6.98 10.22-3.15 17.02-5.67 56.43-7.84 79.38-0.78 8.29-8.9 9.52-13.93 9.31-34.55-4.24-55.86-9.74-67.09-12.71-6.11-1.62-7.39-5.96-7.24-9.02 6.6-75.87 6.85-63.81 8.77-83.87 1.46-15.22 6.93-12.15 14.74-9.88z" fill="#d35fbc"/><path d="m352.1 372.65c-8.2-1.48-8.68 9.36-9.87 13.21-3.58 14.48-8.2 36.97-7.52 49.3 0.29 5.31 3.61 12.11 6.37 12.19 9.75 6.74 25.94 3.71 34.77 3.26 24.36-5.79 16.35-29.81 7.99-36.44-12.43-7.45 7.69-1.25 7.26-23.96-12.62-23.55-40.25-17.81-39-17.57z" fill="#fff"/><path d="m456.37 365.26c-1.59 16.46-2.27 32.16-4.69 66.5-0.45 6.39-0.72 10.63-5.13 14.2-9.08 7.17-8.82 6.51-17.7 12.74-5.38 3.77-8.24 2.96-7.84-0.81 1.55-14.55 4.63-69.51 7.45-80.98 0.41-1.67 1.02-4.89 6.77-8.48 4.31-2.7 12.67-8.88 16.53-11.74 1.2-0.89 6-5.84 4.61 8.58z" fill="#d35fbc"/><path d="m346.94 432.08c1.38 5.83 6.05 5.85 11.57 6.21 5.51 0.36 7.18-0.61 12.05-1.18 4.87-0.57 7.91-2.57 6.65-10.39-1.27-7.81-8.77-6.99-12.49-8.67-3.72-1.68-5.31-7.09-2.65-11.77 2.66-4.68 4.79-0.36 11.1-3.89 6.32-3.53 5.27-9.93 0.74-12.25-4.53-2.32-15.72-5.28-19.57-1.99-3.85 3.3-3.3 12.41-5.56 23.33-2.26 10.92-3.21 14.77-1.83 20.59z" fill="#de87cd"/></g><g transform="matrix(1.5985326,-0.05638673,0.05973046,1.6053635,-358.41635,-284.36567)"><path d="m382.32 337.24c-18.25-1.09-47.09-0.48-71.78-3.91-19.34-0.91-16.65-15.45-15.05-31.92 1.6-16.47 1.62-41.13 2.73-57.31 0.25-3.66-0.26-11.97 4.09-15.85 11.75-10.46 34.34-25.02 41.48-29.72 9.3-6.13 11.43-5.6 15.74-5.8 4.31-0.19 52.5 3.68 68.33 3.52 15.83-0.16 20.76 2.01 21.31 16.79 0.55 14.78-4.08 67.92-5.44 77.93-1.37 10.01-2.11 12.73-4.86 15.53-2.75 2.81-18.42 15.45-36.36 26.04-9.87 4.54-10.6 5.31-20.19 4.71z" fill="#2a7fff"/><path d="m351.44 206.36c2.92-1.56 4.97-3.14 9.2-3.88 10.9-1.02 28.61 2.25 56.15 3.3 9.36 0.36 16.32-0.32 7.06 7.31-11.33 9.7-11.49 9.99-19.25 16.58-5.04 4.29-6.63 6.83-18.62 5.9-14.07-1.12-54.82-3.28-61.91-3.68-4.2-0.42-10.37 0.13-2.29-4.79 10.37-7.61 20.69-15.67 29.67-20.75zm77.19 21.23 0 0M428.63 227.59c6.54-8.21 9.54-7.31 8.31 4.56-1.36 13.09-2.19 40.9-5.7 60.44-1.36 6.02-2.82 6.15-7.33 9.94-5.88 4.95-12.19 8.92-16.54 11.5-9.12 5.43-7.5-4.1-7.13-7.59 0.37-3.49 2.68-38.66 3.75-47.8 2.27-13.27 10.94-17.06 24.64-31.05zM322.94 243.61c12.6 1.23 32.26 2.24 52.4 3.49 6.94 0.43 14.11 2.62 13.17 10-2.07 25.1-1.43 32.21-4.39 60.08-0.71 4.52-3.88 9.01-9.59 8.42-50.24-2.72-40.49-1.43-56.34-3.5-13.6-1.55-12.23-3.69-11.86-10.18 1.78-20.86 1.25-22.8 3.35-60.71 0.91-8.21 2.75-8.02 13.26-7.6z" fill="#59f"/><path d="m327.16 301.59c-4.5-10.21-3.75-24.11 1.8-34.3 2.69-4.95 8.18-8.96 13.56-9.86 9.61-1.61 22.66 0.48 27.16 9.02 1.55 2.94 0.27 7.86-2.41 10.08-6.21 5.14-18.59-4.49-24.29 1.35-2.74 2.8-3.78 11.29 0.02 14.8 6.06 5.61 16.97-3.23 22.09 1.5 2.19 2.02 3.28 5.73 2.58 8.79-0.79 3.47-3.83 6.67-7.04 8.08-7.11 3.14-15.69 1.6-22.72-0.99-4.29-1.58-8.89-4.21-10.76-8.46z" fill="#fff"/></g></svg>