<?xml version="1.0" encoding="UTF-8" standalone="no"?>
<svg
   xmlns:dc="http://purl.org/dc/elements/1.1/"
   xmlns:cc="http://creativecommons.org/ns#"
   xmlns:rdf="http://www.w3.org/1999/02/22-rdf-syntax-ns#"
   xmlns:svg="http://www.w3.org/2000/svg"
   xmlns="http://www.w3.org/2000/svg"
   xmlns:sodipodi="http://sodipodi.sourceforge.net/DTD/sodipodi-0.dtd"
   xmlns:inkscape="http://www.inkscape.org/namespaces/inkscape"
   sodipodi:docname="IMAG1501_1.jpg.svg.2015_02_24_22_51_36.0.svg"
   inkscape:version="0.91 r13725"
   id="svg3407"
   version="1.1"
   viewBox="0 0 498 500"
   height="500pt"
   width="498pt">
  <metadata
     id="metadata3459">
    <rdf:RDF>
      <cc:Work
         rdf:about="">
        <dc:format>image/svg+xml</dc:format>
        <dc:type
           rdf:resource="http://purl.org/dc/dcmitype/StillImage" />
      </cc:Work>
    </rdf:RDF>
  </metadata>
  <defs
     id="defs3457" />
  <sodipodi:namedview
     inkscape:snap-others="false"
     inkscape:snap-to-guides="false"
     inkscape:snap-grids="false"
     inkscape:current-layer="svg3407"
     inkscape:window-maximized="1"
     inkscape:window-y="-8"
     inkscape:window-x="-8"
     inkscape:cy="722.57924"
     inkscape:cx="207.05342"
     inkscape:zoom="0.53400705"
     showgrid="false"
     id="namedview3455"
     inkscape:window-height="1018"
     inkscape:window-width="1920"
     inkscape:pageshadow="2"
     inkscape:pageopacity="0"
     guidetolerance="10"
     gridtolerance="10"
     objecttolerance="10"
     borderopacity="1"
     bordercolor="#666666"
     pagecolor="#ffffff" />
  <g
     id="g4638"
     transform="matrix(1.0312061,-0.02520213,0.02438417,0.99773701,-18.073823,1.8552999)">
    <path
       sodipodi:nodetypes="cccccaaaaaaaaaaccc"
       inkscape:connector-curvature="0"
       id="path3411"
       d="m 53.289072,490.35621 c 32.21528,0.0631 109.379458,8.78566 138.525728,0.54348 26.01461,-13.38647 7.83295,-26.30354 12.18675,-53.13437 5.20802,-74.20539 9.71834,-155.80746 8.93107,-222.53777 -3.89719,-20.36424 -2.55981,-38.93381 -6.10901,-56.31002 -1.14174,-5.14809 -3.60423,-10.11678 -6.77642,-14.46222 -3.66108,-5.01515 -10.48621,-7.61291 -13.75347,-12.86249 -4.59416,-7.38156 -7.41269,-16.1773 -7.2824,-24.6871 0.12358,-8.071333 4.64797,-15.495745 7.61824,-23.026993 C 191.2651,72.125094 201.64366,61.956194 202.51391,49.39408 203.35047,37.318277 201.55034,22.48322 191.9713,14.311795 183.54645,7.1249484 169.79007,7.7327093 158.5898,8.7810361 149.71424,9.6117738 140.04263,12.051578 133.7539,17.96439 122.63749,28.416304 123.04325,45.945737 116.34888,59.373285 110.92916,70.24417 105.61524,81.358621 97.983145,90.950498 91.397505,99.227236 82.424385,105.52827 74.705765,112.8745 47.105971,138.86655 33.080456,146.06266 35.562076,182.36214 44.07234,221.24212 -3.9058812,491.71015 53.289072,490.35621 Z"
       style="fill:#2ad4ff;stroke-width:3.27999997;stroke-miterlimit:4;stroke-dasharray:none" />
    <path
       sodipodi:nodetypes="ccccczzzzzzzcczzzzzzzzcc"
       inkscape:connector-curvature="0"
       style="fill:#ffffff"
       id="path3413"
       d="m 177.21964,169.99338 c -29.88002,-7.33642 -54.66374,-7.7914 -63.51748,-9.37548 -48.502407,-15.38832 -63.621188,22.82754 -60.285645,53.77014 1.07213,33.95574 -17.233147,166.24839 -9.970027,201.0537 4.767352,47.97978 152.358992,44.78143 132.349822,-5.83152 -3.42532,-6.71967 -19.40737,-4.84297 -24.32233,-9.18704 -4.91496,-4.34408 -6.82406,-8.58242 -5.38649,-11.5915 1.43758,-3.00908 1.5109,-2.69212 7.43941,-2.87352 5.92851,-0.18142 14.14757,-2.39324 19.85382,3.00398 5.70624,5.39721 11.52886,-16.82489 4.8118,-20.36689 -6.71705,-3.542 -17.74472,0.98242 -21.50139,-3.09863 -3.75666,-4.08105 -2.97066,-8.31414 1.16111,-12.37195 4.13176,-4.05782 20.41007,4.07053 26.22829,-0.75124 17.08236,-33.14085 -13.07704,-34.13078 -22.983,-41.28127 -5.52479,-4.6128 -3.85933,-9.10202 1.119,-13.69809 4.97833,-4.59608 15.51075,4.29301 21.77522,-1.63528 6.26448,-5.92835 9.59079,-6.11641 3.72455,-20.17423 -5.86623,-14.05779 -18.40194,4.00821 -22.56171,-6.56088 -4.15977,-10.56917 -1.33634,-9.10337 2.76537,-12.9019 4.10172,-3.79853 14.81411,5.72359 20.24495,-0.0931 5.43085,-5.81671 8.93296,-27.32046 1.52915,-25.25752 -7.40381,2.06295 -19.10857,9.82343 -21.59375,-2.47928 -2.48518,-12.30271 3.41982,-10.19319 7.76073,-12.65081 27.84098,-4.05691 11.72074,-42.71531 1.3586,-45.64769 z" />
    <path
       sodipodi:nodetypes="caccsaaaacccccc"
       inkscape:connector-curvature="0"
       style="fill:#ffffff"
       id="path3415"
       d="m 180.27807,40.541519 c -0.53391,-3.343479 -1.35273,-7.286367 -4.40609,-9.409415 -4.53295,-3.151805 -11.48595,-3.501083 -17.12974,-2.489713 -8.46972,2.620885 -15.03225,9.663003 -15.29325,15.889612 -0.56527,20.533809 -0.83871,18.385437 -3.24079,27.269166 -2.27866,8.427301 -3.45268,11.613517 -5.85076,17.220818 -2.80113,6.549795 -5.15389,13.482753 -9.93386,19.092553 -4.09782,4.80922 -10.05482,8.21507 -15.53042,11.85341 -6.16849,4.09874 -20.075125,4.42664 -19.431945,11.18374 1.12244,11.79192 34.972995,14.37459 37.217045,15.21604 12.72218,2.30091 35.68959,6.80232 38.875,2.99918 4.42907,-5.88737 -2.88458,-8.24514 -6.19988,-15.01204 -6.41351,-12.31177 -11.82473,-32.33151 -8.95806,-44.286032 2.11242,-8.661358 6.75631,-11.267022 12.46237,-17.622355 10.13554,-10.584734 19.20194,-18.757133 17.42038,-31.904964 z" />
    <path
       sodipodi:nodetypes="zzzzzzz"
       inkscape:connector-curvature="0"
       style="fill:#ffffff"
       id="path3417"
       d="m 55.081582,457.23969 c -1.02687,9.23949 -3.038865,14.98869 20.73467,16.61751 23.773535,1.62882 87.485838,14.84611 93.186688,-3.06322 5.70085,-17.90933 4.94976,-12.11136 2.82582,-13.53568 -2.12394,-1.42432 -16.1219,3.23954 -40.68917,4.51963 -24.56727,1.28009 -37.409966,-2.7095 -53.358374,-3.96363 -15.948409,-1.25412 -21.672784,-9.81409 -22.699634,-0.57461 z" />
  </g>
  <a
     id="a3461"
     transform="matrix(1.1137961,0,-0.0153718,1.0529049,-8.6595603,-26.327291)" />
  <g
     id="g4663"
     transform="matrix(1.0381339,0.01630831,-0.0163241,1.0391391,-32.852936,17.052853)">
    <path
       sodipodi:nodetypes="csssssccssscsc"
       inkscape:connector-curvature="0"
       id="path4582"
       d="m 363.45642,264.95279 c 4.86866,0.0911 13.6067,0.52981 13.49289,5.19065 -0.42286,17.31714 5.04549,32.36147 1.91445,48.20141 -6.22224,31.47835 -3.06353,61.65844 -0.32308,90.92604 0.26366,2.81589 0.95551,6.81076 -1.5267,8.38588 -10.28001,6.52331 -30.62485,12.10106 -40.72425,17.43109 -5.70459,3.01064 -8.83202,1.2882 -14.25986,0.97635 -45.6701,-3.41379 -72.08983,-2.25043 -109.33257,-0.6575 -8.48456,-0.0383 -7.41275,-7.71973 -7.64885,-13.59532 -4.17309,-103.85031 -3.30011,-85.91483 -2.53618,-113.35577 0.17103,-6.14351 -0.87577,-7.50901 4.40983,-12.24931 8.1446,-7.30435 29.94522,-22.68976 39.73367,-28.11084 7.41445,-3.54965 13.07162,-5.29876 26.51281,-4.44549 31.73318,2.01449 67.07251,0.90612 90.28784,1.30281 z"
       style="fill:#ffdd55;stroke-width:3.27999997;stroke-miterlimit:4;stroke-dasharray:none" />
    <path
       sodipodi:nodetypes="csccccccc"
       inkscape:connector-curvature="0"
       style="fill:#ffffff"
       id="path3419"
       d="m 233.49975,309.94007 c 17.01757,-0.6696 43.67506,-1.81298 68.90759,-0.24807 9.09916,0.56432 20.11418,2.22983 19.85796,12.35019 -0.43685,35.37351 -1.70714,58.3682 -0.68908,95.12457 -0.34248,6.2132 -2.46599,5.88861 -9.98942,5.77919 -66.03855,-1.30644 -54.05988,-1.22594 -74.98126,-1.51597 -17.94198,-0.4562 -18.54254,-0.78045 -18.90646,-9.62248 -0.42639,-28.47493 -3.95944,-37.42688 -2.86849,-89.39912 0.11841,-11.23284 4.9042,-11.77154 18.66916,-12.46831 z" />
    <g
       transform="matrix(1.1137961,0,-0.0153718,1.0529049,10.408236,-21.030681)"
       id="g4584">
      <path
         d="m 208.20171,403.8361 c -3.19374,-3.60733 0.26722,-9.70325 1.40148,-14.3858 1.99106,-8.21971 6.58925,-15.59156 9.36844,-23.5793 2.80101,-8.05045 3.89228,-16.70112 7.34828,-24.49287 2.12181,-4.78375 3.18293,-11.69779 8.11848,-13.43753 4.9894,-1.75872 10.95184,1.9265 14.91121,5.43514 4.29739,3.80817 5.72501,10.0044 7.80282,15.35719 1.93821,4.99316 3.22302,10.23617 4.29281,15.4844 1.3824,6.78189 1.67001,13.74404 2.7272,20.58418 0.94171,6.09296 7.44658,13.72535 3.21962,18.21353 -3.45365,3.66707 -11.1134,1.45509 -15.01223,-1.73462 -4.60242,-3.76534 -1.22095,-12.8537 -5.51753,-16.9646 -1.2622,-1.20765 -3.30489,-1.46902 -5.05037,-1.39927 -4.28893,0.17139 -8.8736,1.58154 -12.09564,4.41751 -4.73693,4.16934 -3.26894,13.59969 -8.69926,16.81427 -3.67706,2.17671 -9.98279,2.8871 -12.81531,-0.31223 z"
         id="path3423"
         style="fill:#ffe680"
         inkscape:connector-curvature="0"
         sodipodi:nodetypes="aaaaaaaaaaaaaaaa" />
      <path
         d="m 233.25617,366.12609 c -0.011,-0.4909 2.46291,-13.76402 4.58294,-17.10384 2.12004,-3.33981 8.527,13.25596 8.21652,17.83977 -0.31047,4.58381 -8.50867,2.32539 -10.8296,1.34925 -2.32093,-0.97615 -1.95885,-1.59429 -1.96986,-2.08518 z"
         id="path3427"
         style="fill:#ffffff"
         inkscape:connector-curvature="0"
         sodipodi:nodetypes="zzzzz" />
    </g>
    <path
       sodipodi:nodetypes="csscccsc"
       inkscape:connector-curvature="0"
       style="fill:#ffe680;fill-opacity:1"
       id="path3435"
       d="m 341.72372,420.87204 c -6.04224,2.12989 -4.96048,-5.77363 -4.5502,-14.00512 1.40283,-28.14529 -0.20698,-61.14772 -0.74912,-85.80129 -0.0684,-3.10829 0.22622,-8.58852 3.8679,-11.21732 14.13852,-12.62442 26.70639,-30.95831 26.12469,-3.96398 -0.57723,19.11274 -2.00143,6.59584 2.16972,84.84843 -0.40273,9.93616 1.10036,15.10677 -0.70669,18.15418 -2.82213,4.75927 -12.80126,6.46417 -26.1563,11.9851 z" />
    <path
       sodipodi:nodetypes="cscccsccc"
       inkscape:connector-curvature="0"
       style="fill:#ffe680"
       id="path3437"
       d="m 253.42231,275.70196 c 6.13858,-2.5072 7.01678,-4.43804 15.57179,-4.20315 19.66052,0.5398 38.31651,7.42793 71.78025,5.95252 3.08752,0.33924 8.20854,-0.68389 9.02879,2.1442 -7.25445,5.36982 -20.95954,17.33617 -23.93502,18.02074 -32.64065,-0.34647 -85.4679,2.80427 -102.70603,2.01822 -2.77584,-0.12658 -5.24648,0.21101 1.78131,-4.98576 8.12756,-6.10376 20.78079,-14.9978 28.47891,-18.94678 z" />
  </g>
  <g
     id="g4672"
     transform="matrix(0.91711414,0.70006481,-0.62011105,0.95277148,336.50435,-218.78892)">
    <path
       sodipodi:nodetypes="cssssscscssccc"
       inkscape:connector-curvature="0"
       style="fill:#de87cd"
       id="path3439"
       d="m 293.48858,299.41569 c 8.49104,-10.5797 15.68899,-9.42954 16.61237,-9.10667 2.49121,0.87107 38.31686,22.82699 73.73896,38.12652 8.81642,3.80799 10.692,7.20177 11.15802,10.48431 0.98615,6.94615 4.28473,34.13608 5.86263,41.89355 0.79777,3.92212 2.11552,9.49504 -2.86663,17.77924 -14.56059,24.21105 -31.77404,51.24528 -51.27838,72.21503 -2.49177,1.38881 -6.04457,5.4593 -17.27394,-1.23804 -19.8006,-11.80933 -50.33488,-32.45251 -80.09076,-45.95736 -7.35492,-2.87696 -9.6122,-11.28278 -10.21462,-15.31027 -1.51166,-10.10633 -0.32904,-25.76915 -0.078,-37.34036 0.12008,-5.53382 3.79919,-14.70205 7.47545,-17.47153 14.70416,-15.24604 29.42195,-30.90763 46.95486,-54.07442 z" />
    <path
       sodipodi:nodetypes="czzzzcssc"
       inkscape:connector-curvature="0"
       style="fill:#e9afdd"
       id="path3441"
       d="m 260.81466,352.85862 c 4.6518,-5.06959 27.71791,-33.69785 30.3518,-37.71541 2.6339,-4.01756 8.23127,-9.90072 9.93933,-8.72917 1.70806,1.17156 1.88526,4.70223 3.44099,18.16359 1.55574,13.46136 1.8882,10.58911 -11.23992,28.34181 -13.12811,17.75271 -20.4758,22.68953 -33.29392,39.2609 -11.95659,14.69891 -11.5767,15.81072 -11.08075,4.00107 0.31918,-7.60044 0.0657,-20.72955 0.56021,-23.22609 1.70776,-8.6207 3.14754,-10.97901 11.32226,-20.0967 z" />
    <path
       sodipodi:nodetypes="ccsscscsc"
       inkscape:connector-curvature="0"
       style="fill:#ffffff"
       id="path3445"
       d="m 267.62134,403.40599 c 15.72135,-20.51883 4.40468,-5.43286 39.71361,-49.67721 0.61602,-0.98603 6.30993,-4.77617 11.09843,-2.3503 13.70001,6.94048 43.57621,24.37357 61.34382,34.16945 6.4222,3.54078 4.16844,10.82483 1.98734,15.00122 -17.27255,27.71615 -30.26396,43.81482 -37.17455,52.27369 -3.75618,4.59774 -7.79882,4.17918 -10.22254,2.98514 -60.06493,-32.14105 -49.51705,-27.35388 -64.62095,-36.52373 -11.49576,-6.97929 -7.09256,-10.07424 -2.12516,-15.87826 z" />
    <path
       style="fill:#e9afdd"
       d="m 343.36281,434.66215 c -3.74371,6.85497 -11.45521,1.23442 -14.79118,-0.006 -12.00555,-5.33942 -30.11532,-14.33808 -38.18139,-21.62672 -3.47639,-3.14131 -6.21073,-9.33574 -4.6631,-11.41194 1.03429,-10.89543 12.50809,-21.15784 17.94196,-27.41784 18.10689,-14.76025 29.93291,4.38135 29.62812,14.18943 -2.10603,13.26467 5.31852,-4.98184 20.64882,7.85435 8.81407,22.268 -8.27399,34.19038 -10.5833,38.41887 z"
       id="path3449"
       inkscape:connector-curvature="0"
       sodipodi:nodetypes="scsccccs" />
    <path
       style="fill:#e9afdd"
       d="m 321.98647,306.54575 c 6.27499,2.83566 26.90088,15.88791 54.52473,28.24936 4.13894,1.85214 6.81208,2.45622 8.79127,7.77362 3.16318,11.62837 2.73042,15.94088 3.23707,22.28804 0.47583,5.96108 -1.32702,8.17173 -4.23676,6.52125 -11.24177,-6.37655 -54.86833,-28.43093 -62.75255,-35.23055 -2.42963,-2.0954 -2.70966,-2.67377 -5.08392,-21.70915 -2.66286,-12.93241 2.62577,-9.20054 5.52016,-7.89257 z"
       id="path3451"
       inkscape:connector-curvature="0"
       sodipodi:nodetypes="sscssscs" />
    <path
       sodipodi:nodetypes="zzzzzzzzzzz"
       inkscape:connector-curvature="0"
       style="fill:#ffffff"
       id="path3453"
       d="m 299.60655,405.71877 c -3.19476,-4.2279 -0.50176,-7.68668 2.45154,-11.9471 2.9533,-4.26042 4.58571,-4.95066 7.80458,-8.22466 3.21886,-3.27401 6.35562,-4.41299 10.97993,0.82693 4.62432,5.23991 -0.29509,10.3166 -1.29992,13.97909 -1.00483,3.66249 1.78079,7.81944 6.53004,8.43971 4.74925,0.62027 3.02544,-3.32794 9.11508,-6.03615 6.08963,-2.70821 9.86635,1.58813 8.82663,6.20422 -1.03974,4.6161 -5.49955,14.49383 -9.99432,15.51258 -4.49478,1.01875 -10.42764,-4.40451 -19.22675,-8.75611 -8.7991,-4.35161 -11.99206,-5.77062 -15.18681,-9.99851 z" />
  </g>
  <g
     inkscape:groupmode="layer"
     id="layer1"
     inkscape:label="Layer 1" />
  <g
     inkscape:groupmode="layer"
     id="layer2"
     inkscape:label="Layer 2">
    <a
       id="a6746"
       transform="matrix(1.2538222,0,0,1.2483836,-90.587714,-98.571685)"
       style="fill:#ffffff">
      <rect
         y="274.53482"
         x="277.89896"
         height="71.909164"
         width="77.152542"
         id="rect6741"
         style="opacity:1;fill:#ffffff;fill-opacity:1;fill-rule:evenodd;stroke:none;stroke-width:0.08;stroke-miterlimit:4;stroke-dasharray:none;stroke-opacity:1" />
    </a>
    <path
       d="m 285.82687,313.44578 c -7.61271,-10.14795 -10.58545,-25.72089 -7.38899,-38.42606 1.55211,-6.16929 6.36374,-12.01211 11.90161,-14.3863 9.89936,-4.24405 24.50342,-5.27292 31.66533,3.01991 2.4702,2.86027 2.28374,8.55592 0.14718,11.77515 -5.01211,7.55185 -20.65443,0.52775 -24.52344,8.8069 -1.74093,3.72532 0.56054,9.36227 3.7029,11.72624 6.31223,4.74871 16.50983,-4.41506 23.27972,-0.4463 2.89704,1.69835 5.08434,5.5005 5.16762,9.06062 0.0944,4.03937 -2.30313,8.35743 -5.3712,10.74908 -6.79725,5.29864 -16.43693,5.79022 -24.71052,4.72434 -5.0395,-0.64923 -10.70383,-2.38271 -13.87021,-6.60358 z"
       id="path3433"
       style="fill:#87deaa"
       inkscape:connector-curvature="0"
       sodipodi:nodetypes="aaaaaaaaaaaa" />
    <g
       id="g3471"
       transform="matrix(1.1271985,-0.04639278,0.03463656,1.4089311,-34.349371,-27.848213)">
      <path
         d="m 344.36046,275.9457 c -11.1947,2.14443 -1.70905,1.3392 -13.16577,1.20828 -14.8952,-0.1702 -62.34515,-2.39059 -74.50287,-3.94758 -19.90841,-2.54959 -16.38756,-13.6467 -15.1458,-27.10812 1.24176,-13.46142 -1.20453,-42.04183 1.48166,-56.07924 2.68619,-14.03741 34.52234,-27.86973 42.63283,-32.52368 8.11049,-4.65395 11.36356,-4.97756 15.71848,-5.21464 4.35492,-0.23708 53.22862,2.26737 69.23808,1.86667 16.00946,-0.4007 21.06914,1.36663 22.13291,13.98578 1.06377,12.61915 -1.7719,58.08261 -2.8075,66.6575 -1.0356,8.57489 -1.69113,10.86271 -4.37854,13.3483 -2.68741,2.48559 -24.23688,24.55666 -41.20348,27.80673 z m -15.96748,-13.69971 c 2.57749,-4.36801 5.75166,-40.4148 5.08159,-49.02915 -0.67007,-8.61435 -5.86175,-7.21131 -20.68427,-8.95371 -14.82252,-1.7424 -45.7026,-1.3905 -50.73317,-0.35961 -5.03057,1.03089 -6.84664,5.82907 -6.96094,10.09599 -0.1143,4.26692 -0.90681,23.06174 -2.03727,38.71997 -1.13046,15.65823 54.25083,13.55662 62.18765,14.07162 7.93683,0.515 10.56893,-0.1771 13.14641,-4.54511 z"
         id="path3425"
         style="fill:#5fd38d"
         inkscape:connector-curvature="0"
         sodipodi:nodetypes="ssszzzzzzzzszzzzzzzz" />
      <path
         inkscape:connector-curvature="0"
         style="fill:#87deaa;fill-opacity:1"
         id="path3429"
         d="m 262.01384,183.43495 c 16.10814,-10.08583 25.59393,-18.3255 39.33733,-21.62998 13.35337,-2.88374 33.06302,0.72943 56.63839,0.78999 7.49267,0.0193 11.45687,0.9548 7.34069,5.95131 -12.82919,9.4393 -12.93248,10.49451 -20.46499,17.61018 -4.8982,4.62714 -6.52746,7.23213 -18.73255,6.59913 -13.8559,-0.15765 -29.6236,-1.42441 -37.73479,-1.5666 -13.25124,-0.2323 -38.80711,0.99635 -26.38408,-7.75403 z"
         sodipodi:nodetypes="ccscscsc" />
      <path
         sodipodi:nodetypes="cscsszcc"
         inkscape:connector-curvature="0"
         style="fill:#87deaa;fill-opacity:1"
         id="path3447"
         d="m 373.60481,175.35062 c 6.55724,-7.88296 9.71864,-7.09484 8.83689,4.1249 -0.9732,12.38333 -1.93717,39.38093 -4.94244,57.88261 -1.66503,4.87842 -1.96831,4.83056 -6.43363,8.71832 -5.71889,4.97918 -11.73423,9.48574 -16.7353,11.2697 -9.75169,3.4786 -8.21567,-3.79413 -7.70144,-7.01207 0.51423,-3.21794 1.48967,-36.52964 2.29543,-45.17719 1.92139,-12.56602 15.06025,-18.82885 24.68049,-29.80627 z" />
    </g>
    <rect
       style="opacity:0.81199999;fill:#ffffff;fill-opacity:1;stroke:#000000;stroke-width:0.08;stroke-miterlimit:4;stroke-dasharray:none;stroke-opacity:1"
       id="rect6721"
       width="2.9962151"
       height="2.2471614"
       x="-410.48151"
       y="-48.307365" />
  </g>
  <g
     inkscape:groupmode="layer"
     id="layer4"
     inkscape:label="Layer 4" />
  <g
     inkscape:groupmode="layer"
     id="layer3"
     inkscape:label="Layer 3" />
  <g
     inkscape:groupmode="layer"
     id="layer5"
     inkscape:label="Layer 5" />
  <g
     inkscape:groupmode="layer"
     id="layer6"
     inkscape:label="Layer 6" />
</svg>
