<svg xmlns:svg="http://www.w3.org/2000/svg" xmlns="http://www.w3.org/2000/svg" version="1.1" viewBox="0 0 500 450" height="450" width="500"><a transform="matrix(1.1137961,0,-0.0153718,1.0529049,-8.6595603,-76.327291)"/><path d="m240.3 162.2c7.3-0.7 20.5-1.6 21.1 5.3-0.3-19.1 15.6 129.7 17 198.1 0.3 15-5 23.4-10.4 28.2-14.2 11.5-19.9 16.1-32.7 27.4-6.2 5.4-18.4 9.5-27.3 10-69.5 6.6-109 9.1-164 12.8C31.2 445.3 32.3 431 30.5 422.3 0.3 268.9 4.2 270.4 3.8 268.9 0.9 257.7 1.8 241.6 10.5 233.4 21.8 222.7 51.5 193.2 68.9 182.6c10.5-6.6 17.2-9.9 37.5-10.9 47.9-2.5 99.1-6 133.9-9.4z" style="fill:#00a669;stroke-width:3.3"/><path d="m53.6 254.2c24.9-2.7 62.6-4.5 102.1-10.2 13.6-2 28.4-0.5 29.8 14.5 5.6 52.5 10.2 79 18.1 133.3 0.6 9.3-2 12.4-13.3 13.5-99.1 9.6-81.2 7.6-112.6 10.8-26.9 2.5-25.1 0.4-27.2-12.7-5.6-42.1-7.5-52.6-19.9-128.8-1.8-16.7 2.5-17.1 23-20.6z" fill="#2dd389"/><path d="m75.5 391.8c-6-4.9-1.5-15.2-0.5-22.8 1.7-13.3 7.8-25.8 10.9-38.9 3-13.2 3.1-26.9 7.3-39.9 2.6-7.9 3-19 10.8-22.8 7.9-3.9 18.6 0.5 25.9 5.1 7.9 5 11.5 14.3 16 22.2 4.2 7.3 7.4 15.2 10.2 23.2 3.7 10.3 5.5 21 8.7 31.5 2.8 9.3 15.1 19.7 9 27.7-5 6.5-18.2 4.8-25.3 0.7-8.4-4.8-4.6-19.8-12.6-25.2-2.3-1.6-5.8-1.5-8.7-1-7.1 1.3-14.4 4.5-19.2 9.7-7.1 7.6-2.7 22-11.1 28.2-5.7 4.2-16 6.8-21.4 2.5z" fill="#fff"/><path d="m109.6 326.9c-0.1-0.8 1.9-22 4.9-27.6 3-5.6 16.4 19.1 16.6 26.3 0.2 7.2-13.8 5.3-17.8 4.2-4-1.1-3.5-2.1-3.6-2.9zm129.9 70 0 0 0 0c-8.6 4.4-10.7-7.4-12-19.7-4.4-41.5-12.9-89.1-15.8-128-0.3-4.6-1-13.8 4.2-16.3 10-4.7 32.4-28.8 34.3-1.5 7.8 76.3 5.3 51.8 14.8 127.9 2.3 12.3 3 13.5-25.5 37.5zM77.7 200.1c7.4-5.6 12.5-10.9 26.8-11.7 29.8-1.8 34.1-3.5 105.2-6.8 46.3-3 17.4 15.9-2.5 31.8-4.7 2.8-5.2 8.3-21.9 9.5-80.1 5.9-120.1 11.6-139.7 13-3.1 0.2-10.2 0.5 0.4-8.8 12.7-11.5 20.1-17.1 31.6-27.1z" fill="#2dd389"/><rect width="3" height="2.3" x="-410.5" y="-98.3" style="fill:#fff;opacity:0.8;stroke-width:0.1;stroke:#000"/><path d="m470.7 199c24.1 3.8 25.6 18.9 26.1 20.6 1.5 4.5 1.1 78.2-1 146.4-0.5 16.9-2.9 22.7-7.8 26.2-10.4 7.5-46.5 35.9-59.2 45.1-5.9 4.3-14.7 12.5-32.2 11.1-51.3-4.1-111.7-6.6-161.4-15.8-4.3-2.6-12.9-4.5-12.2-27.6 1.2-39.9 5.3-102.9 8.4-162.9-1.4-13.8 10.3-24.6 16.4-29 15.1-11.1 41.4-22.9 60.3-32.6 9-4.6 26.9-6.9 34.4-3.7 51.4 10.3 82.1 10.8 128.2 22.2z" fill="#f379d5"/><path d="m355.2 198.2c6.4 1.6 62.5 10.8 85.9 13.8 23.4 3 22.8 4 22.3 7.7-0.5 3.6-6.1 7-26.5 21.1-20.5 14.1-15.6 12.1-55 7.4-39.5-4.7-53.5-11.7-90.8-17-33.6-5.6-35.1-4-15.6-13.5 12.6-6.1 33.5-17.9 38-19.3 15.3-4.9 20.3-4.7 41.8-0.1zm-76.1 54.4 0 0 0 0c46.1 6.3 16.8 4.4 112.9 17.8 3.8 0.8 14.3 4.7 12.9 15-3.5 26.7-3.6 88.1-4.8 123.9-0.4 12.9-14.1 15.8-22.6 16.1-59-2.4-95.7-8.4-115-11.7-10.5-1.8-13.2-8.4-13.2-13.1 3.1-118.3 4.8-99.7 5.9-131 0.8-23.7 10.4-19.6 23.9-17.1z" fill="#fae"/><path d="m300.9 279.6c-14.1-1.3-13.7 15.5-15.3 21.6-4.5 22.9-9.9 58.2-7.5 77.3 1.1 8.2 7.4 18.3 12.1 18.1 17.2 9.3 44.3 2.7 59.3 0.9 40.7-11.9 24.5-48.1 9.6-57.4-21.9-10.1 12.9-2.9 9.7-38-23.9-35-70.1-22.8-68-22.6z" fill="#fff"/><path d="m476.7 255.7c-0.9 25.7-0.4 50.1-0.8 103.6-0.1 10-0.1 16.6-7.2 22.6-14.6 12.2-14.2 11.1-28.6 21.8-8.7 6.5-13.6 5.6-13.4-0.3 1.1-22.7 0.4-108.2 4-126.3 0.5-2.6 1.2-7.7 10.6-13.9 7-4.7 20.5-15.3 26.8-20.2 1.9-1.5 9.5-9.8 8.7 12.7zM298.5 372.2 298.5 372.2c3 8.9 10.9 8.3 20.3 8.2 9.4-0.1 12.1-1.8 20.3-3.3 8.2-1.5 13.1-4.9 10.2-16.9-3-11.9-15.6-9.8-22.1-11.9-6.5-2.2-9.8-10.3-5.7-17.9 4-7.6 8.1-1.1 18.4-7.3 10.3-6.2 7.9-16-0.1-19.1-7.9-3.1-27.2-6.3-33.4-0.7-6.2 5.6-4.3 19.6-6.9 36.8-2.7 17.2-3.9 23.3-0.9 32.1z" fill="#fae"/><path d="m272.9 235.5c-29.2-0.7-75.3 1.9-115-2.2-31-0.4-27.5-23.9-26-50.4 1.6-26.5 0.1-66.1 0.9-92.2 0.2-5.9-1.1-19.2 5.6-25.7C156.6 47.6 191.9 22.9 203 15 217.5 4.6 220.9 5.3 227.8 4.8c6.9-0.5 84.1 2.9 109.4 1.8 25.3-1.1 33.3 2.1 35.1 25.8 1.8 23.7-2.5 109.3-4 125.4-1.6 16.1-2.6 20.6-6.8 25.2-4.2 4.7-28.5 25.8-56.6 43.9-15.5 7.8-16.6 9.1-32 8.7z" fill="#009ce5"/><path d="m215.7 27.1c4.6-2.7 7.8-5.3 14.5-6.7 17.4-2.3 45.9 2 90 2.1 15 0.1 26.1-1.4 11.7 11.3-17.5 16.2-17.8 16.7-29.8 27.7-7.8 7.2-10.2 11.3-29.4 10.5-22.6-1-87.8-2.2-99.2-2.4-6.7-0.4-16.6 0.8-3.9-7.6 16.1-12.8 32.1-26.3 46.2-35zm124.7 29.7 0 0 0 0c10-13.5 14.8-12.3 13.6 6.9-1.4 21.1-1.1 65.8-5.5 97.3-1.8 9.7-4.1 10-11.1 16.4-9.1 8.3-19 15-25.8 19.4-14.3 9.2-12.2-6.2-11.9-11.8 0.4-5.6 2-62.2 3.1-76.9 2.8-21.4 16.5-28 37.5-51.2zM172.4 88.5c20.2 1.3 51.7 1.8 84 2.6 11.1 0.3 22.7 3.4 21.6 15.3-1.8 40.4-0.4 51.8-3.4 96.7-0.9 7.3-5.7 14.7-14.8 14.1-80.5-1.5-64.8 0-90.3-2.4-21.8-1.7-19.8-5.2-19.6-15.7 1.6-33.6 0.6-36.7 1.7-97.7 1-13.2 3.9-13 20.7-12.9z" fill="#3fc3ff"/><path d="m182.6 181.3c-7.8-16.1-7.4-38.5 0.8-55.2 4-8.1 12.5-14.8 21.1-16.6 15.3-3.1 36.3-0.5 44 12.9 2.7 4.6 0.9 12.6-3.3 16.3-9.6 8.6-30-6.2-38.7 3.5-4.2 4.6-5.4 18.3 0.9 23.8 10 8.7 26.9-6.1 35.4 1.2 3.6 3.1 5.6 9 4.6 14-1.1 5.6-5.7 10.9-10.8 13.4-11.2 5.4-25 3.5-36.4-0.3-7-2.3-14.5-6.3-17.7-13z" fill="#fff"/></svg>